<svg width="20" height="21" viewBox="0 0 20 21" fill="none" xmlns="http://www.w3.org/2000/svg">
<path d="M7 20.5C6.73478 20.5 6.48043 20.3946 6.29289 20.2071C6.10536 20.0196 6 19.7652 6 19.5V16.5H2C1.46957 16.5 0.960859 16.2893 0.585786 15.9142C0.210714 15.5391 0 15.0304 0 14.5V2.5C0 1.96957 0.210714 1.46086 0.585786 1.08579C0.960859 0.710714 1.46957 0.5 2 0.5H18C18.5304 0.5 19.0391 0.710714 19.4142 1.08579C19.7893 1.46086 20 1.96957 20 2.5V14.5C20 15.0304 19.7893 15.5391 19.4142 15.9142C19.0391 16.2893 18.5304 16.5 18 16.5H11.9L8.2 20.21C8 20.4 7.75 20.5 7.5 20.5H7Z" fill="white" fill-opacity="0.8"/>
</svg>
